<mxfile host="Electron" modified="2024-04-08T19:54:20.189Z" agent="Mozilla/5.0 (Macintosh; Intel Mac OS X 10_15_7) AppleWebKit/537.36 (KHTML, like Gecko) draw.io/24.1.0 Chrome/120.0.6099.109 Electron/28.1.0 Safari/537.36" etag="If_kc_OeN_2vnTZkXgvn" version="24.1.0" type="device">
  <diagram name="Page-1" id="Dm00h_glG5wHUAZUfB6E">
    <mxGraphModel dx="843" dy="683" grid="1" gridSize="10" guides="1" tooltips="1" connect="1" arrows="1" fold="1" page="1" pageScale="1" pageWidth="827" pageHeight="1169" math="0" shadow="0">
      <root>
        <mxCell id="0" />
        <mxCell id="1" parent="0" />
        <mxCell id="PI6uemJeemt4HWXyMSxK-1" value="" style="shape=image;verticalLabelPosition=bottom;labelBackgroundColor=default;verticalAlign=top;aspect=fixed;imageAspect=0;image=data:image/svg+xml,PHN2ZyB4bWxuczp4bGluaz0iaHR0cDovL3d3dy53My5vcmcvMTk5OS94bGluayIgeG1sbnM9Imh0dHA6Ly93d3cudzMub3JnLzIwMDAvc3ZnIiBoZWlnaHQ9IjEyOS41NjIiIHdpZHRoPSIxMDMuODc1IiB2ZXJzaW9uPSIxLjEiIHZpZXdCb3g9IjAgMCAxMDMuODc1IDEyOS41NjIiPiYjeGE7IDxnPiYjeGE7ICA8cmVjdCB5PSIwIiB4PSIwIiB3aWR0aD0iMTAzLjg3NSIgb3BhY2l0eT0iMCIgaGVpZ2h0PSIxMjkuNTYyIi8+JiN4YTsgIDxwYXRoIGZpbGw9IiMwMDAwMDAiIGQ9Ik01MS45Mzc1IDEyOS41NjJDNTIuOTM3NSAxMjkuNTYyIDU0LjU2MjUgMTI5LjE4OCA1Ni4xMjUgMTI4LjMxMkM5MS42ODc1IDEwOC4zNzUgMTAzLjg3NSA5OS45Mzc1IDEwMy44NzUgNzcuMTI1TDEwMy44NzUgMjkuMzEyNUMxMDMuODc1IDIyLjc1IDEwMS4wNjIgMjAuNjg3NSA5NS43NSAxOC40Mzc1Qzg4LjM3NSAxNS4zNzUgNjQuNTYyNSA2LjgxMjUgNTcuMTg3NSA0LjI1QzU1LjUgMy42ODc1IDUzLjY4NzUgMy4zMTI1IDUxLjkzNzUgMy4zMTI1QzUwLjE4NzUgMy4zMTI1IDQ4LjM3NSAzLjgxMjUgNDYuNzUgNC4yNUMzOS4zNzUgNi4zNzUgMTUuNSAxNS40Mzc1IDguMTI1IDE4LjQzNzVDMi44NzUgMjAuNjI1IDAgMjIuNzUgMCAyOS4zMTI1TDAgNzcuMTI1QzAgOTkuOTM3NSAxMi4yNSAxMDguMzEyIDQ3Ljc1IDEyOC4zMTJDNDkuMzc1IDEyOS4xODggNTAuOTM3NSAxMjkuNTYyIDUxLjkzNzUgMTI5LjU2MlpNNTEuOTM3NSAxMTguMjVDNTAuOTM3NSAxMTguMjUgNDkuOTM3NSAxMTcuODc1IDQ4LjA2MjUgMTE2Ljc1QzE5LjE4NzUgOTkuMjUgOS45Mzc1IDk0LjEyNSA5LjkzNzUgNzQuODEyNUw5LjkzNzUgMzEuMjVDOS45Mzc1IDI5LjEyNSAxMC4zMTI1IDI4LjMxMjUgMTIuMDYyNSAyNy42MjVDMjEuNTYyNSAyMy44NzUgNDAgMTcuNjg3NSA0OS40Mzc1IDEzLjkzNzVDNTAuNDM3NSAxMy41IDUxLjI1IDEzLjM3NSA1MS45Mzc1IDEzLjM3NUM1Mi42MjUgMTMuMzc1IDUzLjQzNzUgMTMuNTYyNSA1NC40Mzc1IDEzLjkzNzVDNjMuODc1IDE3LjY4NzUgODIuMTg3NSAyNC4zMTI1IDkxLjg3NSAyNy42MjVDOTMuNTYyNSAyOC4yNSA5My45Mzc1IDI5LjEyNSA5My45Mzc1IDMxLjI1TDkzLjkzNzUgNzQuODEyNUM5My45Mzc1IDk0LjEyNSA4NC42ODc1IDk5LjE4NzUgNTUuODEyNSAxMTYuNzVDNTQgMTE3Ljg3NSA1Mi45Mzc1IDExOC4yNSA1MS45Mzc1IDExOC4yNVpNNDUuMTI1IDkzLjA2MjVDNDcuMTg3NSA5My4wNjI1IDQ4LjkzNzUgOTIuMDYyNSA1MC4xODc1IDkwLjE4NzVMNzguNzUgNDUuMTg3NUM3OS41IDQ0IDgwLjI1IDQyLjYyNSA4MC4yNSA0MS4xODc1QzgwLjI1IDM4LjQzNzUgNzcuNzUgMzYuNjI1IDc1LjE4NzUgMzYuNjI1QzczLjU2MjUgMzYuNjI1IDcyIDM3LjU2MjUgNzAuODEyNSAzOS40Mzc1TDQ0Ljg3NSA4MS4wNjI1TDMyLjU2MjUgNjUuMTI1QzMxLjA2MjUgNjMuMTI1IDI5LjY4NzUgNjIuNTYyNSAyOCA2Mi41NjI1QzI1LjI1IDYyLjU2MjUgMjMuMTI1IDY0Ljc1IDIzLjEyNSA2Ny41NjI1QzIzLjEyNSA2OC44NzUgMjMuNjg3NSA3MC4yNSAyNC41NjI1IDcxLjQzNzVMMzkuODEyNSA5MC4xODc1QzQxLjM3NSA5Mi4yNSA0My4wNjI1IDkzLjA2MjUgNDUuMTI1IDkzLjA2MjVaIi8+JiN4YTsgPC9nPiYjeGE7PC9zdmc+;" vertex="1" parent="1">
          <mxGeometry x="200" y="80" width="32" height="40" as="geometry" />
        </mxCell>
      </root>
    </mxGraphModel>
  </diagram>
</mxfile>
